<?xml version="1.0" encoding="UTF-8" standalone="no"?>
<svg width="600" height="600" viewBox="0 0 600 600" xmlns="http://www.w3.org/2000/svg">
  <g fill="none" fill-rule="evenodd">
    <circle fill="#6366F1" cx="300" cy="300" r="3" />
    <circle fill="#6366F1" cx="350" cy="300" r="3" />
    <circle fill="#6366F1" cx="400" cy="300" r="3" />
    <circle fill="#6366F1" cx="450" cy="300" r="3" />
    <circle fill="#6366F1" cx="500" cy="300" r="3" />
    <circle fill="#6366F1" cx="550" cy="300" r="3" />
    <circle fill="#6366F1" cx="600" cy="300" r="3" />
    <circle fill="#6366F1" cx="300" cy="350" r="3" />
    <circle fill="#6366F1" cx="300" cy="400" r="3" />
    <circle fill="#6366F1" cx="300" cy="450" r="3" />
    <circle fill="#6366F1" cx="300" cy="500" r="3" />
    <circle fill="#6366F1" cx="300" cy="550" r="3" />
    <circle fill="#6366F1" cx="300" cy="600" r="3" />
    <circle fill="#6366F1" cx="300" cy="250" r="3" />
    <circle fill="#6366F1" cx="300" cy="200" r="3" />
    <circle fill="#6366F1" cx="300" cy="150" r="3" />
    <circle fill="#6366F1" cx="300" cy="100" r="3" />
    <circle fill="#6366F1" cx="300" cy="50" r="3" />
    <circle fill="#6366F1" cx="300" cy="0" r="3" />
    <circle fill="#6366F1" cx="250" cy="300" r="3" />
    <circle fill="#6366F1" cx="200" cy="300" r="3" />
    <circle fill="#6366F1" cx="150" cy="300" r="3" />
    <circle fill="#6366F1" cx="100" cy="300" r="3" />
    <circle fill="#6366F1" cx="50" cy="300" r="3" />
    <circle fill="#6366F1" cx="0" cy="300" r="3" />
    <circle fill="#6366F1" cx="350" cy="350" r="2" />
    <circle fill="#6366F1" cx="400" cy="400" r="2" />
    <circle fill="#6366F1" cx="450" cy="450" r="2" />
    <circle fill="#6366F1" cx="500" cy="500" r="2" />
    <circle fill="#6366F1" cx="550" cy="550" r="2" />
    <circle fill="#6366F1" cx="600" cy="600" r="2" />
    <circle fill="#6366F1" cx="350" cy="250" r="2" />
    <circle fill="#6366F1" cx="400" cy="200" r="2" />
    <circle fill="#6366F1" cx="450" cy="150" r="2" />
    <circle fill="#6366F1" cx="500" cy="100" r="2" />
    <circle fill="#6366F1" cx="550" cy="50" r="2" />
    <circle fill="#6366F1" cx="600" cy="0" r="2" />
    <circle fill="#6366F1" cx="250" cy="350" r="2" />
    <circle fill="#6366F1" cx="200" cy="400" r="2" />
    <circle fill="#6366F1" cx="150" cy="450" r="2" />
    <circle fill="#6366F1" cx="100" cy="500" r="2" />
    <circle fill="#6366F1" cx="50" cy="550" r="2" />
    <circle fill="#6366F1" cx="0" cy="600" r="2" />
    <circle fill="#6366F1" cx="250" cy="250" r="2" />
    <circle fill="#6366F1" cx="200" cy="200" r="2" />
    <circle fill="#6366F1" cx="150" cy="150" r="2" />
    <circle fill="#6366F1" cx="100" cy="100" r="2" />
    <circle fill="#6366F1" cx="50" cy="50" r="2" />
    <circle fill="#6366F1" cx="0" cy="0" r="2" />
  </g>
</svg>
